<?xml version="1.0" standalone="no"?><!DOCTYPE svg PUBLIC "-//W3C//DTD SVG 1.1//EN" "http://www.w3.org/Graphics/SVG/1.1/DTD/svg11.dtd"><svg t="1759504301722" class="icon" viewBox="0 0 1024 1024" version="1.1" xmlns="http://www.w3.org/2000/svg" p-id="11820" width="128" height="128" xmlns:xlink="http://www.w3.org/1999/xlink"><path d="M110.08 730.112c0 55.808 159.744 100.864 356.864 100.864s356.352-45.568 356.352-100.864c0-55.296-159.744-100.864-356.864-100.864s-356.352 45.568-356.352 100.864" fill="#F8F8F9" opacity=".6" p-id="11821"></path><path d="M684.544 662.016l-153.6 135.68-5.632-262.144 163.328-97.28z" fill="#F5F9FF" opacity=".6" p-id="11822"></path><path d="M525.824 795.136l-286.72-84.48v-97.28l241.664 71.68c15.872-112.128 29.184-155.648 38.912-132.096 9.728 23.552 11.776 104.448 6.144 242.176" fill="#E1E5EC" opacity=".6" p-id="11823"></path><path d="M521.728 531.456l-76.8-16.896-4.608-54.784V366.592l240.64 67.072h8.704z" fill="#D4DAE2" opacity=".6" p-id="11824"></path><path d="M444.928 518.144L244.736 462.336l200.192-97.28z" fill="#F0F1F4" opacity=".6" p-id="11825"></path><path d="M749.568 566.272l-58.88-120.32v103.936z" fill="#E1E5EC" opacity=".6" p-id="11826"></path><path d="M444.416 521.728c-2.048 0-3.584-1.536-3.584-3.072V371.712c0.512-2.048 2.048-3.072 4.096-3.072 1.536 0 2.56 1.536 3.072 3.072v145.92c0 2.048-1.536 4.096-3.584 4.096" fill="#ACB5C3" opacity=".6" p-id="11827"></path><path d="M251.392 462.336l269.824 69.632L680.448 435.2l-235.52-66.048-193.536 93.184z m270.336 77.312h-1.024l-281.6-72.704c-1.536-0.512-3.072-1.536-3.072-2.56 0-1.536 1.024-2.56 2.048-3.584l204.288-98.304c0.512-0.512 1.536-0.512 2.048 0l244.224 68.096c1.024 0.512 2.048 1.536 2.56 3.072 0 1.024-0.512 2.56-1.536 3.584l-166.912 101.888c0.512 0 0 0.512-1.024 0.512z" fill="#ACB5C3" opacity=".6" p-id="11828"></path><path d="M525.312 537.6l8.192 254.464 151.552-130.56V440.32l-159.744 97.28z m5.632 265.216h-1.536c-1.536-0.512-2.048-1.536-2.048-3.072l-9.216-263.168c0-1.536 0.512-2.56 1.536-2.56l167.424-101.888c1.024-0.512 2.56-0.512 3.584 0 1.024 0.512 2.048 1.536 2.048 2.56v228.864c0 1.024-0.512 2.048-1.536 3.072l-158.72 136.192h-1.536z" fill="#ACB5C3" opacity=".6" p-id="11829"></path><path d="M530.944 802.816h-1.024l-289.792-84.992c-1.536-0.512-2.56-2.048-2.56-3.584v-101.376c-0.512-2.048 1.024-3.584 3.072-4.096 2.048-0.512 3.584 1.024 4.096 3.072v100.864l283.136 83.456v-0.512c0-2.048 1.536-3.584 3.584-3.584 2.048 0 3.584 1.536 3.584 3.584v5.12c0 1.024-0.512 2.048-1.536 3.072l-2.56-1.024z" fill="#ACB5C3" opacity=".6" p-id="11830"></path><path d="M476.16 684.544l-289.28-89.088L240.64 463.872l281.088 72.192z" fill="#FFFFFF" opacity=".6" p-id="11831"></path><path d="M704 380.416c-18.944-0.512-37.376-4.608-54.272-11.776l1.536-3.584c5.632 2.56 55.296 23.04 92.16 1.536-9.728-4.608-16.896-12.8-20.992-23.04v-1.024c-3.072-10.24-1.024-21.504 5.632-29.696 7.68-8.192 18.432-12.288 29.184-10.752 7.168-0.512 14.336 2.048 19.456 7.68 2.56 3.584 3.584 8.704 2.56 13.312-4.096 17.408-14.848 32.768-29.696 43.008 10.752 4.608 22.016 6.656 33.792 7.168 33.792-1.536 66.048-34.304 76.288-78.848l3.584 0.512c-11.264 46.592-44.544 79.872-79.872 81.92-12.8 0.512-25.6-2.56-37.376-8.192-12.288 8.192-26.624 12.288-41.984 11.776z" fill="#ACB5C3" opacity=".6" p-id="11832"></path><path d="M725.504 343.552c3.584 9.728 11.264 17.408 20.48 21.504l0.512-0.512c14.336-9.728 25.088-24.576 29.184-41.984 1.024-4.096 0-7.68-2.048-11.264-4.608-4.096-10.752-6.656-16.896-6.144-9.728-0.512-19.456 3.072-26.112 10.24-6.656 7.68-8.192 17.92-4.608 27.136l-0.512 1.024z" fill="#FFFFFF" opacity=".6" p-id="11833"></path><path d="M689.152 444.416l59.392 120.832v9.216l-56.832-11.776z" fill="#E1E5EC" opacity=".6" p-id="11834"></path><path d="M694.784 560.64l50.176 10.752v-4.608l-52.736-107.52 2.56 101.376z m56.832 17.92l-62.976-13.312-2.56-120.832 6.144-1.536 59.904 122.368v13.312z" fill="#ACB5C3" opacity=".6" p-id="11835"></path><path d="M475.648 687.616L185.344 599.04c-0.512 0-1.536-0.512-2.048-2.048-0.512-0.512-0.512-2.048 0-2.56l54.272-131.584c0.512-1.536 2.56-2.56 4.096-2.048l281.6 72.704c0.512 0 1.536 0.512 2.048 1.536 0.512 1.024 0.512 2.048 0 2.56l-45.568 148.48c0 1.536-1.536 2.048-3.072 2.048l-1.024-0.512z" fill="#FFFFFF" opacity=".6" p-id="11836"></path><path d="M476.16 684.544l45.568-148.992L240.64 463.36l-54.272 132.096L476.16 684.544z m0 6.656h-1.536l-289.792-89.088c-2.048-0.512-3.584-1.536-4.096-3.584-1.024-2.048-1.024-4.096 0-6.144l53.76-131.072c1.024-3.072 4.608-5.12 8.192-4.096l280.576 72.704c1.536 0.512 3.072 1.024 3.584 2.048 1.536 1.536 2.048 4.608 0.512 6.656l-45.568 147.968c0 3.072-2.56 5.12-5.632 4.608z" fill="#ACB5C3" opacity=".6" p-id="11837"></path><path d="M890.368 199.168c-4.608-6.656-38.912 0.512-53.76 23.552-4.096 7.168-9.216 28.672-5.632 23.552 9.216-13.312 25.6-5.632 37.888-15.872 10.24-8.704 25.6-25.6 21.504-31.232" fill="#F0F1F4" opacity=".6" p-id="11838"></path><path d="M882.688 198.144c-17.408 1.536-33.792 10.752-44.032 25.088-3.072 6.144-5.12 12.288-6.144 18.944 5.12-4.608 11.264-7.168 17.92-7.168 6.656-0.512 12.8-2.56 17.92-6.144 11.776-10.24 23.552-25.088 20.992-28.672-1.024-1.536-3.072-2.048-6.656-2.048z m-52.224 50.688h-1.024c-3.584-2.048 3.584-22.528 5.632-26.624 11.264-15.36 28.16-25.088 47.104-27.136 3.584-0.512 6.656 1.024 9.216 3.584 6.144 9.216-20.992 33.28-21.504 33.28-5.632 4.608-12.8 7.168-19.968 6.656-7.168 1.536-13.824 2.048-17.92 8.192 0.512 1.024-0.512 2.048-1.536 2.048z" fill="#94A0B2" opacity=".6" p-id="11839"></path><path d="M847.872 231.424l-2.56-2.048c14.336-18.944 34.304-31.744 57.344-36.864 2.56-0.512 4.096-1.536 4.608-1.536 0.512 0 1.536-0.512 5.632-0.512l0.512 3.584c-1.536 0.512-3.072 0.512-5.12 0.512-0.512 0-2.048 0.512-4.608 1.536-22.528 4.096-42.496 16.896-55.808 35.328" fill="#94A0B2" opacity=".6" p-id="11840"></path><path d="M214.016 733.696c-0.512 7.168-29.696 15.36-50.688 5.632-6.656-2.56-17.92-15.872-14.336-13.824 12.288 5.12 21.504-6.144 35.328-4.608 10.752 2.048 29.696 7.168 29.696 12.8" fill="#F0F1F4" opacity=".6" p-id="11841"></path><path d="M151.552 728.064c3.584 3.584 7.168 7.168 11.776 9.728 14.848 6.144 31.232 5.632 45.568-1.536 2.048-1.536 2.56-2.048 2.56-2.56 0-3.584-14.848-9.216-28.672-11.264-5.632 0-10.752 0.512-15.872 2.56-4.608 3.072-9.728 4.096-15.36 3.072z m33.28 17.408c-7.68 0-15.36-1.536-22.016-4.096-5.12-2.048-17.92-12.288-15.872-15.872 0 0 0.512-2.048 3.584-0.512 5.632 2.048 11.776 1.536 17.408-1.536 5.632-2.56 11.776-3.584 17.92-2.56 6.144 0.512 31.232 6.144 31.232 14.336 0 2.048-1.536 4.096-5.12 5.632-8.704 3.072-17.92 4.608-27.136 4.608z" fill="#94A0B2" opacity=".6" p-id="11842"></path><path d="M224.256 735.232c-11.264-2.56-22.528-3.072-33.792-1.536-8.704 1.536-17.408 1.024-25.6-1.536l1.536-3.584c7.68 2.048 16.384 2.56 24.064 1.536 11.776-1.536 23.04-1.024 34.816 1.536l-1.024 3.584z" fill="#94A0B2" opacity=".6" p-id="11843"></path></svg>