<?xml version="1.0" standalone="no"?><!DOCTYPE svg PUBLIC "-//W3C//DTD SVG 1.1//EN" "http://www.w3.org/Graphics/SVG/1.1/DTD/svg11.dtd"><svg t="1761186480519" class="icon" viewBox="0 0 1121 1024" version="1.1" xmlns="http://www.w3.org/2000/svg" p-id="21583" xmlns:xlink="http://www.w3.org/1999/xlink" width="70.0625" height="64"><path d="M635.29789 295.594667c10.337524-74.99581 72.265143-117.613714 139.312761-109.129143 63.634286 8.533333 111.811048 69.924571 104.935619 134.680381-3.413333 32.377905-20.626286 61.391238-46.470095 81.822476-25.795048 20.48-58.465524 29.013333-91.136 25.6-63.634286-6.826667-113.517714-69.924571-106.642285-132.973714zM1094.58627 14.336c-36.08381-10.24-72.216381-13.653333-110.055619-13.653333-72.265143 0-146.236952 8.533333-216.746666 25.551238-125.561905 30.72-240.786286 85.23581-337.091048 172.178285-5.168762 5.12-10.337524 5.12-17.212952 3.413334-36.08381-8.533333-73.97181-18.724571-110.104381-22.137905-65.340952-6.826667-118.637714 18.724571-159.939048 69.87581-22.381714 27.306667-44.714667 56.271238-67.096381 83.529142-20.626286 25.551238-41.252571 51.151238-61.927619 78.409143-29.257143 37.546667-10.288762 88.649143 34.425905 97.182476 55.05219 10.24 110.055619 18.724571 165.107809 27.257905 10.337524 1.706667 13.750857 5.12 13.750858 15.36 0 35.791238 5.168762 69.87581 20.675047 102.253715 30.96381 63.097905 80.798476 100.59581 147.894857 115.907047 25.84381 6.826667 24.088381 6.826667 24.088381 32.426667-1.706667 52.809143-3.413333 105.667048-3.413333 160.231619 0 46.031238 44.665905 74.99581 85.967238 52.809143 65.340952-34.084571 132.437333-66.462476 197.778286-103.960381 60.220952-34.133333 91.184762-88.649143 91.184762-156.818286 0-29.013333 0-59.684571 1.706666-88.649143 0-8.533333 3.413333-15.36 10.337524-22.186666 96.304762-71.582476 168.569905-160.231619 223.573334-265.898667 44.714667-88.649143 77.433905-180.711619 91.184761-277.845333 3.413333-20.48 3.413333-39.204571 1.706667-57.977905-5.168762-20.48-6.875429-20.48-25.795048-27.306667z" fill="#4253A0" p-id="21584"></path><path d="M276.849128 776.045714c12.678095 8.533333 27.306667 17.017905 41.886476 22.137905 27.306667 11.897905 30.96381 37.400381 7.265524 54.418286-19.992381 15.311238-58.270476 39.107048-116.540953 71.43619a20.48 20.48 0 0 1-25.551238-5.12c-1.80419-1.706667-1.80419-3.413333-1.80419-5.12-9.118476-33.987048-18.236952-49.298286-27.306667-47.591619-18.236952 3.413333-54.662095 8.484571-109.32419 13.604572-9.118476 1.706667-18.18819-5.12-19.992381-15.311238v-5.12c12.678095-56.07619 21.845333-93.525333 30.915047-112.249905 3.657143-6.826667-10.922667-18.67581-45.543619-32.280381-9.069714-3.413333-12.726857-13.653333-9.069714-22.137905 0-1.706667 1.80419-3.413333 3.608381-5.071238a1315.206095 1315.206095 0 0 1 100.205714-95.232c7.314286-5.12 14.57981-8.533333 23.698286-6.826667 16.384 1.706667 25.453714 10.24 30.963809 27.209143 18.18819 69.729524 56.466286 122.441143 116.540953 163.254857z" fill="#4253A0" p-id="21585"></path></svg>