<?xml version="1.0" standalone="no"?><!DOCTYPE svg PUBLIC "-//W3C//DTD SVG 1.1//EN" "http://www.w3.org/Graphics/SVG/1.1/DTD/svg11.dtd"><svg t="1761183372976" class="icon" viewBox="0 0 1024 1024" version="1.1" xmlns="http://www.w3.org/2000/svg" p-id="1956" xmlns:xlink="http://www.w3.org/1999/xlink" width="64" height="64"><path d="M897.45833304 297.87499971l-149.99999942-149.99999942A37.35 37.35 0 1 0 694.58333362 200.75000029L780.45833304 287H420.83333333c-165.375 0-299.99999971 134.62499971-299.99999971 299.99999971s134.62499971 299.99999971 299.99999971 300.00000058h63.37500029c20.62500029 0 37.50000029-16.875 37.49999942-37.50000029s-16.875-37.50000029-37.49999942-37.50000029H420.83333333c-124.12500029 0-225-100.87499971-225-225s100.87499971-225 225-225h359.62499971l-85.87499942 85.87500029a37.35 37.35 0 0 0 0 52.875c7.12500029 7.49999971 16.49999971 11.25 26.24999942 11.25s19.125-3.75000029 26.62500058-10.87499971l149.99999942-150.00000029c14.625-14.625 14.625-38.62500029 0-53.25000029z" p-id="1957"></path></svg>