<?xml version="1.0" standalone="no"?><!DOCTYPE svg PUBLIC "-//W3C//DTD SVG 1.1//EN" "http://www.w3.org/Graphics/SVG/1.1/DTD/svg11.dtd"><svg t="1761183359062" class="icon" viewBox="0 0 1024 1024" version="1.1" xmlns="http://www.w3.org/2000/svg" p-id="1792" xmlns:xlink="http://www.w3.org/1999/xlink" width="64" height="64"><path d="M608.33333304 287H248.70833333L334.58333362 201.12499971A37.35 37.35 0 1 0 281.70833362 148.24999971l-150.00000029 150.00000029a37.35 37.35 0 0 0 0 52.875l150.00000029 150.00000029c7.49999971 7.12500029 16.875 10.87499971 26.62499971 10.87499971s19.125-3.75000029 26.62499971-10.87499971a37.35 37.35 0 0 0 0-52.875L248.70833333 361.99999971H608.33333304c124.12500029 0 225 100.87499971 225 225s-100.87499971 225-225 225h-63.37499942c-20.62500029 0-37.50000029 16.875-37.50000029 37.50000029s16.875 37.50000029 37.50000029 37.50000029H608.33333304c165.375 0 299.99999971-134.62499971 300.00000058-300.00000058s-134.62499971-299.99999971-300.00000058-299.99999971z" p-id="1793"></path></svg>