<?xml version="1.0" standalone="no"?><!DOCTYPE svg PUBLIC "-//W3C//DTD SVG 1.1//EN" "http://www.w3.org/Graphics/SVG/1.1/DTD/svg11.dtd"><svg t="1762602280916" class="icon" viewBox="0 0 1024 1024" version="1.1" xmlns="http://www.w3.org/2000/svg" p-id="2104" xmlns:xlink="http://www.w3.org/1999/xlink" width="64" height="64"><path d="M629.816889 839.50933301a28.444444 28.444444 0 0 1 9.784889-39.02577701L883.427556 654.222222 512 431.388444l-369.436444 221.696 269.255111 146.830223a28.444444 28.444444 0 0 1 13.425777 33.905777l-2.048 4.664889a28.444444 28.444444 0 0 1-38.570666 11.37777801l-312.888889-170.66666701a28.444444 28.444444 0 0 1-1.024-49.379555l426.666667-256a28.444444 28.444444 0 0 1 29.240888 0l426.666667 256a28.444444 28.444444 0 0 1 0 48.810667l-284.444444 170.66666601a28.444444 28.444444 0 0 1-39.025778-9.784889zM512 967.111111a28.444444 28.444444 0 0 1-28.444444-28.444444l0-398.222223a28.444444 28.444444 0 0 1 56.888888 0l0 398.222223A28.444444 28.444444 0 0 1 512 967.111111z m-11.662222-879.274667l0.967111-0.398222a28.216889 28.216889 0 0 1 5.575111-1.649778l0.967111-0.170666a28.615111 28.615111 0 0 1 2.901333-0.284445l2.503112 0a28.615111 28.615111 0 0 1 2.730666 0.28444501L512 85.333333a28.558222 28.558222 0 0 1 15.92888899 4.892445l0.68266701 0.512 5.347555 3.754666 4.94933299 3.527112 9.55733401 6.82666601 179.2 127.99999999a28.444444 28.444444 0 1 1-33.109334 46.307556L540.444444 168.96 540.444444 284.44444401a28.444444 28.444444 0 1 1-56.888888 0l0-115.37066601-154.168889 110.08a28.444444 28.444444 0 1 1-32.995556-46.307556l199.111111-142.222222 0.56888901-0.398222a28.273778 28.273778 0 0 1 2.78755599-1.706667l1.024-0.512z" p-id="2105"></path></svg>