<?xml version="1.0" standalone="no"?><!DOCTYPE svg PUBLIC "-//W3C//DTD SVG 1.1//EN" "http://www.w3.org/Graphics/SVG/1.1/DTD/svg11.dtd"><svg t="1762602275036" class="icon" viewBox="0 0 1024 1024" version="1.1" xmlns="http://www.w3.org/2000/svg" p-id="1944" xmlns:xlink="http://www.w3.org/1999/xlink" width="64" height="64"><path d="M394.183111 184.490667a28.444444 28.444444 0 0 1-9.784889 39.025777L140.572444 369.777778 512 592.611556l369.436444-221.696-269.255111-146.830223a28.444444 28.444444 0 0 1-13.425777-33.905777l2.048-4.664889a28.444444 28.444444 0 0 1 38.570666-11.377778l312.888889 170.666667a28.444444 28.444444 0 0 1 1.024 49.379555l-426.666667 256a28.444444 28.444444 0 0 1-29.240888 0l-426.666667-256a28.444444 28.444444 0 0 1 0-48.810667l284.444444-170.666666a28.444444 28.444444 0 0 1 39.025778 9.784889zM512 56.888889a28.444444 28.444444 0 0 1 28.444444 28.444444v398.222223a28.444444 28.444444 0 0 1-56.888888 0v-398.222223A28.444444 28.444444 0 0 1 512 56.888889z m11.662222 879.274667l-0.967111 0.398222a28.216889 28.216889 0 0 1-5.575111 1.649778l-0.967111 0.170666a28.615111 28.615111 0 0 1-2.901333 0.284445h-2.503112a28.615111 28.615111 0 0 1-2.730666-0.284445L512 938.666667a28.558222 28.558222 0 0 1-15.928889-4.892445l-0.682667-0.512-5.347555-3.754666-4.949333-3.527112-9.557334-6.826666-179.2-128a28.444444 28.444444 0 1 1 33.109334-46.307556L483.555556 855.04 483.555556 739.555556a28.444444 28.444444 0 1 1 56.888888 0v115.370666l154.168889-110.08a28.444444 28.444444 0 1 1 32.995556 46.307556l-199.111111 142.222222-0.568889 0.398222a28.273778 28.273778 0 0 1-2.787556 1.706667l-1.024 0.512z" p-id="1945"></path></svg>