<?xml version="1.0" standalone="no"?><!DOCTYPE svg PUBLIC "-//W3C//DTD SVG 1.1//EN" "http://www.w3.org/Graphics/SVG/1.1/DTD/svg11.dtd"><svg t="1760360984081" class="icon" viewBox="0 0 1050 1024" version="1.1" xmlns="http://www.w3.org/2000/svg" p-id="1662" xmlns:xlink="http://www.w3.org/1999/xlink" width="131.25" height="128"><path d="M691.83316064 224.18774226c-204.16585906 0-300.08861089 140.80404054-300.0886109 218.86227906h-39.38112971c0-103.40296689 117.26336423-258.28741102 339.46974061-258.28741102v39.42513196zM691.83316064 779.8796872c-203.90185059 0-300.08861089-142.69609377-300.0886109-222.29437921h-39.42513195c0 104.41499686 116.99935743 261.7195095 339.51374285 261.71950949v-39.42513028z" fill="#e6e6e6" p-id="1663"></path><path d="M5.98548021 375.50808284m59.40170475 0l406.395661 0q59.40170475 0 59.40170474 59.40170474l0 135.25988096q0 59.40170475-59.40170474 59.40170473l-406.395661 0q-59.40170475 0-59.40170475-59.40170473l0-135.25988096q0-59.40170475 59.40170475-59.40170474Z" fill="#ffffff" p-id="1664"></path><path d="M689.58909612 93.98800619m79.20227188 0l209.53401306 0q79.20227188 0 79.20227185 79.20227186l0 78.146243q0 79.20227188-79.20227185 79.20227189l-209.53401306 0q-79.20227188 0-79.20227188-79.20227189l0-78.146243q0-79.20227188 79.20227188-79.20227186Z" fill="#ffffff" p-id="1665"></path><path d="M689.58909612 688.0050503m79.20227188 0l209.53401306 0q79.20227188 0 79.20227185 79.20227187l0 78.14624299q0 79.20227188-79.20227185 79.20227355l-209.53401306 0q-79.20227188 0-79.20227188-79.20227355l0-78.14624299q0-79.20227188 79.20227188-79.20227187Z" fill="#ffffff" p-id="1666"></path></svg>