<?xml version="1.0" standalone="no"?><!DOCTYPE svg PUBLIC "-//W3C//DTD SVG 1.1//EN" "http://www.w3.org/Graphics/SVG/1.1/DTD/svg11.dtd"><svg t="1760270801484" class="icon" viewBox="0 0 1024 1024" version="1.1" xmlns="http://www.w3.org/2000/svg" p-id="9833" xmlns:xlink="http://www.w3.org/1999/xlink" width="32" height="32"><path d="M340.672 252.16h-11.2c-46.272 0-83.904 37.504-83.904 83.648a22.208 22.208 0 0 1-44.48 0c0-46.144-37.696-83.712-83.968-83.712a22.208 22.208 0 0 1-22.272-22.144c0-12.16 9.984-22.144 22.272-22.144 46.272 0 83.968-37.568 83.968-83.712a22.208 22.208 0 0 1 44.48 0 84.352 84.352 0 0 0 83.904 83.712h1.088a22.336 22.336 0 0 1 20.288 22.144 21.888 21.888 0 0 1-8.96 17.664l-1.28 0.896v3.584z m428.544 569.472h-8.32a62.912 62.912 0 0 0-62.976 62.784 16.64 16.64 0 0 1-33.408 0c0-34.56-28.16-62.72-62.912-62.72a16.64 16.64 0 0 1-16.704-16.64 16.64 16.64 0 0 1 16.64-16.64c34.752 0 62.976-28.16 62.976-62.72a16.64 16.64 0 0 1 33.408 0 63.296 63.296 0 0 0 62.912 62.72h0.832c8.448 0.64 15.232 7.936 15.232 16.64 0 5.184-2.56 10.112-6.72 13.184l-0.96 0.704v2.688z m157.056-218.496h-5.568a41.984 41.984 0 0 0-41.984 41.792 11.136 11.136 0 0 1-22.208 0 41.984 41.984 0 0 0-41.984-41.792 11.136 11.136 0 0 1-11.136-11.136c0-6.08 4.992-11.072 11.136-11.072a41.984 41.984 0 0 0 41.984-41.792 11.136 11.136 0 0 1 22.208 0 42.24 42.24 0 0 0 41.984 41.792h0.576a11.136 11.136 0 0 1 10.112 11.072 10.944 10.944 0 0 1-4.48 8.832l-0.64 0.448v1.856z" p-id="9834"></path><path d="M822.144 392.256l-452.544 452.48a128 128 0 0 1-181.056-180.992l452.608-452.48a128 128 0 0 1 180.992 180.992z m-543.04 426.048q26.496 0 45.248-18.752l452.544-452.544q18.752-18.752 18.752-45.248 0-26.56-18.752-45.312-18.752-18.688-45.248-18.688t-45.248 18.688L233.856 709.12q-18.752 18.688-18.752 45.248 0 26.496 18.752 45.248t45.248 18.752z" p-id="9835"></path><path d="M641.133129 482.744183m0 0l-90.509668-90.509668q0 0 0 0l-45.254834 45.254834q0 0 0 0l90.509668 90.509668q0 0 0 0l45.254834-45.254834q0 0 0 0Z" p-id="9836"></path></svg>