<?xml version="1.0" standalone="no"?><!DOCTYPE svg PUBLIC "-//W3C//DTD SVG 1.1//EN" "http://www.w3.org/Graphics/SVG/1.1/DTD/svg11.dtd"><svg t="1760272948661" class="icon" viewBox="0 0 1071 1024" version="1.1" xmlns="http://www.w3.org/2000/svg" p-id="1763" xmlns:xlink="http://www.w3.org/1999/xlink" width="33.46875" height="32"><path d="M163.02777345 163.02777345v279.22135476h325.76477749V163.02777345H163.02777345m0-46.53558595h325.76477749a46.54342349 46.54342349 0 0 1 46.53558671 46.53558595v279.22135476a46.54342349 46.54342349 0 0 1-46.53558671 46.54342273H163.02777345A46.54342349 46.54342349 0 0 1 116.4921875 442.24912821V163.02777345A46.54342349 46.54342349 0 0 1 163.02777345 116.4921875z" fill="#666666" p-id="1764"></path><path d="M552.85931035 725.27138491h-235.89106532a23.26779337 23.26779337 0 0 1-23.2677926-23.26779336V453.12676259h46.53558595v225.6090356h212.57625058z" fill="#666666" p-id="1765"></path><path d="M568.19614855 578.3841347v279.221354h325.75693994V578.3841347H568.19614855m0-46.53558671h325.75693994a46.53558595 46.53558595 0 0 1 46.53558672 46.53558671v279.221354a46.53558595 46.53558595 0 0 1-46.53558672 46.54342349H568.19614855A46.53558595 46.53558595 0 0 1 521.66056182 857.6054887V578.3841347A46.53558595 46.53558595 0 0 1 568.19614855 531.84854799z" fill="#666666" p-id="1766"></path><path d="M568.44692907 532.19337208h325.76477749q46.54342349 0 46.53558672 46.53558673v279.221354q0 46.54342349-46.53558671 46.53558594H568.44692907q-46.53558595 0-46.53558594-46.53558594V578.72895881q0-46.54342349 46.53558594-46.53558673z" fill="#666666" p-id="1767"></path><path d="M804.80820916 741.09411139H657.78773154a23.51073713 23.51073713 0 0 1 0-47.02147502h147.02047762a23.51073713 23.51073713 0 0 1 0 47.02147502z" fill="#FFFFFF" p-id="1768"></path><path d="M708.17907834 791.47762143V644.47281734a23.51073713 23.51073713 0 0 1 47.02147503 0v147.00480409a23.51073713 23.51073713 0 0 1-47.02147503 0z" fill="#FFFFFF" p-id="1769"></path></svg>