<?xml version="1.0" standalone="no"?><!DOCTYPE svg PUBLIC "-//W3C//DTD SVG 1.1//EN" "http://www.w3.org/Graphics/SVG/1.1/DTD/svg11.dtd"><svg t="1760272945262" class="icon" viewBox="0 0 1024 1024" version="1.1" xmlns="http://www.w3.org/2000/svg" p-id="1602" xmlns:xlink="http://www.w3.org/1999/xlink" width="32" height="32"><path d="M434.31681504 747.47854605H176.16124842A23.12242028 23.12242028 0 0 1 153.03114895 724.34844657V299.34438136A23.13009948 23.13009948 0 0 1 176.16124842 276.2219603h258.10949072v46.26019972h-234.98707042v378.74386549h235.03314632z" fill="#666666" p-id="1603"></path><path d="M478.92596122 162.09196566v273.60635044h319.21380855V162.09196566H478.92596122m0-45.59977816h319.21380855a45.60745811 45.60745811 0 0 1 45.59977817 45.59977816v273.60635044a45.60745811 45.60745811 0 0 1-45.59977817 45.60745812H478.92596122A45.60745811 45.60745811 0 0 1 433.32618307 435.69831609V162.09196566A45.60745811 45.60745811 0 0 1 478.92596122 116.4921875z" fill="#666666" p-id="1604"></path><path d="M478.92596122 542.69422578h319.21380855q45.59209897 0 45.59977817 45.59977894v273.60634967q0 45.60745811-45.59977817 45.60745811H478.92596122q-45.59977816 0-45.59977815-45.60745811V588.29400472Q433.32618307 542.69422578 478.92596122 542.69422578z" fill="#666666" p-id="1605"></path><path d="M710.77987051 747.73196382H566.71590184a23.0379477 23.0379477 0 0 1 0-46.07589618h144.06396866a23.0379477 23.0379477 0 0 1 0 46.07589618z" fill="#FFFFFF" p-id="1606"></path><path d="M616.09390433 797.10228635V653.05367682a23.0379477 23.0379477 0 0 1 46.07589618 0v144.04860953a23.0379477 23.0379477 0 0 1-46.07589618 0z" fill="#FFFFFF" p-id="1607"></path></svg>