<?xml version="1.0" standalone="no"?><!DOCTYPE svg PUBLIC "-//W3C//DTD SVG 1.1//EN" "http://www.w3.org/Graphics/SVG/1.1/DTD/svg11.dtd"><svg t="1762596691482" class="icon" viewBox="0 0 1024 1024" version="1.1" xmlns="http://www.w3.org/2000/svg" p-id="2008" xmlns:xlink="http://www.w3.org/1999/xlink" width="64" height="64"><path d="M416 128a48 48 0 0 1 0.768 96H416c-41.6 0-75.328 33.344-75.968 74.752V432c0 11.072-1.408 21.76-4.096 32h45.056a48 48 0 0 1 0 96H336c1.728 6.848 2.944 13.888 3.52 21.12l0.512 10.88v133.248c0.64 38.656 30.08 70.272 67.776 74.304l8.192 0.448h0.768A48 48 0 0 1 416 896a172.032 172.032 0 0 1-171.648-161.152l-0.384-10.88V592a32.192 32.192 0 0 0-26.24-31.488l-5.76-0.512h-96l-6.464-0.448a47.68 47.68 0 0 1-20.928-8.128 48 48 0 0 1 27.456-87.424h96a32 32 0 0 0 32-31.488V299.968A171.968 171.968 0 0 1 416 128z m492.032 672a48 48 0 1 1 0 96H584a48 48 0 1 1 0-96h324.032z m0-336a48 48 0 1 1 0 96H584a48 48 0 0 1 0-96h324.032z m0-336a48 48 0 1 1 0 96H584a48 48 0 0 1 0-96h324.032z" p-id="2009"></path></svg>