<?xml version="1.0" standalone="no"?><!DOCTYPE svg PUBLIC "-//W3C//DTD SVG 1.1//EN" "http://www.w3.org/Graphics/SVG/1.1/DTD/svg11.dtd"><svg t="1760273112255" class="icon" viewBox="0 0 1024 1024" version="1.1" xmlns="http://www.w3.org/2000/svg" p-id="1632" xmlns:xlink="http://www.w3.org/1999/xlink" width="32" height="32"><path d="M602.7221807 805.87731932q26.5187911 7.67649225 55.82903386 17.44657343t52.33971949 19.54016235 34.89314606 18.14443614 3.48931437 13.25939556q-22.331614 11.86367011-58.96941765 19.54016235t-80.2542368 11.51473797-90.02431797 3.48931438-87.23286556-4.18717787-72.57774455-11.51473798-45.71002211-18.84229885q-7.67649225-6.28076603 4.18717788-15.00405313t34.54421471-18.14443614 51.64185676-18.4933675 55.4801025-16.74870993q12.56153283-3.48931437 19.19123022 0.69786273t12.56153283 10.46794389 14.65512177 11.8636701 25.47199702 5.58290332 25.12306567-5.58290332 14.65512176-11.8636701 12.56153283-10.46794389 18.14443614-0.69786273zM403.13338316 311.09250374q-2.09358892-4.8850406 1.39572621-9.07221769t9.07221769-7.67649225q6.28076603-3.48931437 15.35298448-6.97862951l-4.18717787-8.37435497q-2.79145165-4.8850406-6.97862951-12.56153283t-9.77008118-19.54016235q-6.28076603-11.86367011-4.53610923-20.9358878t8.37435497-11.86367011 15.70191584 2.09358894 17.44657342 20.23802507q8.37435496 16.05084721 23.37840808 39.77818666t30.35703762 46.05895345q18.14443614 26.5187911 37.68459771 54.43330842l44.66322725-35.59100957q-0.69786272-7.67649225-2.79145166-16.0508472-1.39572622-7.67649225-4.18717786-16.74870993t-8.37435496-19.54016235q-4.8850406-9.77008117-3.83824573-18.84229886t5.23397193-13.60832691 10.81687527-3.83824574 12.21260147 9.77008119 12.91046419 18.49336749 13.60832691 17.09764206l15.35298449 18.14443614 67.69270397-14.65512176 11.16580662 25.82092837-37.68459773 25.12306568q-16.05084721 10.4679439-32.45062577 21.28481916t-27.56558595 17.79550477-23.02947673 16.74870993-21.63375052 23.02947672-16.0508472 30.35703761-6.28076604 38.03352986l0 53.7354457-1.39572621 65.59911503 0 60.01621173t1.39572621 36.98673501 5.58290332 18.49336749 9.07221768 15.70191585q5.58290331 7.67649225 11.86367012 14.65512177-4.8850406 6.97862952-11.86367012 13.25939555-6.28076603 5.58290331-15.35298448 10.46794389t-21.63375053 6.28076603-22.68054536-1.74465757-17.79550479-6.62969816q-8.37435496-4.18717787-15.35298448-10.4679439 2.79145165-12.56153283 5.58290331-25.82092838 2.09358892-11.86367011 3.83824573-25.12306567t1.74465759-25.82092838l0-202.38024918q0-18.84229886 1.39572621-36.98673501t3.48931437-32.10169441q2.79145165-16.74870993 5.58290331-31.4038317-11.86367011-21.63375052-21.63375052-38.38246122-8.37435496-13.95725828-16.39977857-25.82092837t-10.81687525-10.4679439-8.37435496 1.74465757-11.16580662-0.69786271-10.81687526-3.83824574-7.32756088-7.67649225zM356.37656699 440.89500759q-13.95725828 16.05084721-30.00810626 24.07627081t-30.00810625 11.51473799q-16.74870993 3.48931437-32.10169442 2.79145164-6.28076603-9.77008117-8.37435495-22.33161399-1.39572622-11.16580662 0.69786272-27.91451733t13.95725826-40.47605015q11.16580662-23.02947672 31.05490034-35.2420782t38.73139258-17.79550478q22.331614-6.28076603 46.75681618-6.28076603-6.97862952 12.56153283-7.32756088 25.47199702t-1.04679409 26.5187911-4.53610924 28.61238005-17.79550477 31.05490033zM782.07295318 375.99375605q13.95725828 13.95725828 20.58695642 25.12306567t8.72328633 19.54016235q2.79145165 9.77008117 0.69786272 18.14443614-11.16580662 4.8850406-23.72733945 6.97862952-10.4679439 1.39572622-24.42520218 0.34893135t-27.91451731-8.72328632q-13.95725828-6.97862952-20.93588779-16.39977856t-11.51473799-18.84229886-8.37435496-18.4933675-12.21260146-16.05084721q16.74870993-6.97862952 34.89314606-9.07221768 14.65512176-1.39572622 32.10169441 1.3957262t32.10169442 16.05084722zM266.35224978 232.93185586q-22.331614-7.67649225-41.17391287-21.63375051t-32.79955791-27.21665383q-16.05084721-15.35298448-29.31024276-32.7995579 16.74870993-18.14443614 35.59100956-25.82092839 16.05084721-6.97862952 37.68459773-5.23397194t46.05895345 24.07627081q24.42520217 23.02947672 37.68459773 39.08032393t20.93588778 25.82092838q7.67649225 11.86367011 11.16580663 19.54016236-7.67649225 6.97862952-20.23802507 9.77008118-10.4679439 2.79145165-26.86772248 2.44252029t-38.73139257-8.02542361zM766.71996868 124.76310174q35.59100956-9.07221769 55.82903386-6.28076604t31.40383169 10.4679439q12.56153283 8.37435496 17.44657342 23.02947674-9.07221769 13.95725828-21.63375052 27.91451731-10.4679439 11.86367011-25.82092838 25.47199702t-34.89314606 23.37840809q-19.54016235 10.4679439-36.28887228 13.60832692t-30.35703761 5.23397195-23.02947673 6.97862952-14.30618964 18.14443613q-1.39572622-34.89314606 6.28076604-64.90125231 3.48931437-12.56153283 9.07221768-25.47199702t14.30618964-24.07627081 21.6337505-19.88909372 30.35703762-13.6083269z" p-id="1633"></path></svg>